<?xml version="1.0" encoding="UTF-8" standalone="no"?>
<!-- Created with Inkscape (http://www.inkscape.org/) -->

<svg
   xmlns:dc="http://purl.org/dc/elements/1.1/"
   xmlns:cc="http://creativecommons.org/ns#"
   xmlns:rdf="http://www.w3.org/1999/02/22-rdf-syntax-ns#"
   xmlns:svg="http://www.w3.org/2000/svg"
   xmlns="http://www.w3.org/2000/svg"
   xmlns:sodipodi="http://sodipodi.sourceforge.net/DTD/sodipodi-0.dtd"
   xmlns:inkscape="http://www.inkscape.org/namespaces/inkscape"
   width="81.778465"
   height="55.3307"
   id="svg6979"
   version="1.1"
   inkscape:version="0.48.5 r10040"
   sodipodi:docname="新規ドキュメント 32">
  <defs
     id="defs6981" />
  <sodipodi:namedview
     id="base"
     pagecolor="#ffffff"
     bordercolor="#666666"
     borderopacity="1.0"
     inkscape:pageopacity="0.0"
     inkscape:pageshadow="2"
     inkscape:zoom="0.35"
     inkscape:cx="98.745935"
     inkscape:cy="-35.191217"
     inkscape:document-units="px"
     inkscape:current-layer="layer1"
     showgrid="false"
     units="mm"
     fit-margin-top="1"
     fit-margin-left="1"
     fit-margin-right="1"
     fit-margin-bottom="1"
     inkscape:window-width="651"
     inkscape:window-height="423"
     inkscape:window-x="52"
     inkscape:window-y="52"
     inkscape:window-maximized="0" />
  <metadata
     id="metadata6984">
    <rdf:RDF>
      <cc:Work
         rdf:about="">
        <dc:format>image/svg+xml</dc:format>
        <dc:type
           rdf:resource="http://purl.org/dc/dcmitype/StillImage" />
        <dc:title></dc:title>
      </cc:Work>
    </rdf:RDF>
  </metadata>
  <g
     inkscape:label="レイヤー 1"
     inkscape:groupmode="layer"
     id="layer1"
     transform="translate(-276.25407,-421.84027)">
    <g
       id="g4739"
       transform="matrix(0.82549407,0,0,0.60134152,229.27209,327.48288)">
      <path
         sodipodi:nodetypes="ccccccccc"
         inkscape:connector-curvature="0"
         id="path4516"
         d="M 83.149605,242.53543 H 151.1811 v -37.79528 l -22.67716,-21.06148 v 21.06148 l -22.67717,-21.06148 v 21.06148 L 83.149605,183.67867 v 58.85676"
         style="fill:#b4dabe;fill-opacity:1;stroke:#000000;stroke-width:1px;stroke-linecap:butt;stroke-linejoin:miter;stroke-opacity:1" />
      <path
         sodipodi:nodetypes="ccccc"
         inkscape:connector-curvature="0"
         id="rect4622"
         d="m 90.708661,212.2992 c 0.959085,-4.55878 6.635858,-4.55036 7.559058,10e-6 v 7.55905 h -7.559055 z"
         style="fill:#ffffff;fill-opacity:1;stroke:#000000;stroke-opacity:1" />
      <path
         sodipodi:nodetypes="ccccc"
         inkscape:connector-curvature="0"
         id="rect4622-2"
         d="m 105.82677,212.29919 c 0.95908,-4.55878 6.63586,-4.55036 7.55906,1e-5 v 7.55905 h -7.55906 z"
         style="fill:#ffffff;fill-opacity:1;stroke:#000000;stroke-opacity:1" />
      <path
         sodipodi:nodetypes="ccccc"
         inkscape:connector-curvature="0"
         id="rect4622-3"
         d="m 120.94489,212.29919 c 0.95908,-4.55878 6.63585,-4.55036 7.55905,1e-5 v 7.55905 h -7.55905 z"
         style="fill:#ffffff;fill-opacity:1;stroke:#000000;stroke-opacity:1" />
      <path
         sodipodi:nodetypes="ccccc"
         inkscape:connector-curvature="0"
         id="rect4622-5"
         d="m 136.06299,212.29919 c 0.95909,-4.55878 6.63586,-4.55036 7.55906,1e-5 v 7.55905 h -7.55906 z"
         style="fill:#ffffff;fill-opacity:1;stroke:#000000;stroke-opacity:1" />
      <path
         sodipodi:nodetypes="cccc"
         inkscape:connector-curvature="0"
         id="path4669"
         d="m 143.62205,197.5903 v -16.17299 h -7.55906 v 9.34424"
         style="fill:none;stroke:#000000;stroke-width:1px;stroke-linecap:butt;stroke-linejoin:miter;stroke-opacity:1" />
      <path
         sodipodi:nodetypes="cccc"
         inkscape:connector-curvature="0"
         id="path4671"
         d="m 120.94488,197.42801 v -16.0107 h -7.55905 l -0.0811,9.1008"
         style="fill:none;stroke:#000000;stroke-width:1px;stroke-linecap:butt;stroke-linejoin:miter;stroke-opacity:1" />
      <path
         sodipodi:nodetypes="cccc"
         inkscape:connector-curvature="0"
         id="path4673"
         d="m 98.267717,197.50915 v -16.09184 h -7.559056 l -0.08114,9.34424"
         style="fill:none;stroke:#000000;stroke-width:1px;stroke-linecap:butt;stroke-linejoin:miter;stroke-opacity:1" />
      <path
         sodipodi:nodetypes="cccccccccccccccccc"
         inkscape:connector-curvature="0"
         id="path4675-8"
         d="m 117.05483,179.6799 c 1.43502,-0.48264 0.45059,-2.74352 -0.13612,-3.30968 1.42686,-1.85957 0.56893,-5.28128 -2.30811,-4.06229 -0.61468,-3.121 -2.70054,-2.24904 -3.38316,-0.48012 -0.25892,1.23901 -0.36567,-0.96953 -0.67618,-1.34421 -0.41387,-1.03647 -0.8858,-2.13764 -2.08261,-2.21056 -0.62996,0.11242 -0.93733,0.58983 -1.89545,1.71972 -0.12078,-1.65624 -0.5415,-2.53935 -1.8569,-3.54914 -1.52849,-0.81202 -2.30488,-0.26093 -3.12508,1.18007 -0.79676,-1.04554 -2.625824,-2.9391 -3.702098,-1.29717 0,0 -1.127226,2.22855 0.547948,3.06767 -1.848885,0.73617 -2.008825,3.29855 0.11829,3.08618 -1.505989,2.44096 0.781872,4.25173 3.3457,2.26491 -0.55932,1.99488 3.68659,4.09464 4.93548,1.97815 0.13293,1.4382 3.92713,4.45663 4.84251,1.18001 0.36081,1.66388 2.43554,1.19539 3.55302,-0.23662 0.27118,2.64216 1.82277,2.01304 1.82277,2.01304 z"
         style="fill:#d9f0ff;fill-opacity:1;stroke:#000000;stroke-width:0.80891222px;stroke-linecap:butt;stroke-linejoin:miter;stroke-opacity:1" />
      <path
         sodipodi:nodetypes="cccccccccccccccccc"
         inkscape:connector-curvature="0"
         id="path4675"
         d="m 91.412437,178.49422 c 1.95951,-0.51361 0.21913,-2.95838 -0.698694,-3.57231 1.737493,-1.99955 -0.0011,-5.69639 -3.891204,-4.39545 -1.347934,-3.37111 -4.170101,-2.44066 -4.866944,-0.53518 -0.17752,1.33577 -0.666313,-1.04811 -1.163504,-1.454 -0.744839,-1.12059 -1.581812,-2.31129 -3.28869,-2.39602 -0.875417,0.11814 -1.23796,0.63178 -2.422819,1.84627 -0.424263,-1.78794 -1.155349,-2.74306 -3.173457,-3.83941 -2.289802,-0.884 -3.30567,-0.29321 -4.247551,1.25771 -1.288719,-1.13231 -4.169699,-3.18496 -5.443717,-1.41852 0,0 -1.256551,2.39925 1.245233,3.31323 -2.507153,0.78512 -2.342149,3.54949 0.639283,3.33104 -1.760752,2.62656 1.757639,4.59217 5.086646,2.46105 -0.487572,2.14994 5.849315,4.4373 7.295364,2.1596 0.408165,1.5527 6.245451,4.82916 7.041667,1.29785 0.765511,1.79738 3.63358,1.30228 4.998076,-0.23744 0.788044,2.85265 2.890314,2.18156 2.890314,2.18156 z"
         style="fill:#d9f0ff;fill-opacity:1;stroke:#000000;stroke-width:1px;stroke-linecap:butt;stroke-linejoin:miter;stroke-opacity:1" />
      <path
         sodipodi:nodetypes="cccccccccccccccccc"
         inkscape:connector-curvature="0"
         id="path4675-89"
         d="m 137.49404,178.38593 c 1.25875,-0.384 0.63808,-1.95557 0.19497,-2.33909 1.38088,-1.35855 0.97597,-3.75567 -1.57126,-2.8079 -0.2274,-2.19139 -2.07302,-1.51262 -2.81602,-0.24017 -0.33506,0.88479 -0.21841,-0.67562 -0.44586,-0.93171 -0.25291,-0.72158 -0.54882,-1.48725 -1.55408,-1.50359 -0.54328,0.0982 -0.84793,0.4452 -1.76404,1.27336 0.053,-1.16899 -0.21999,-1.78179 -1.23778,-2.45791 -1.21651,-0.52983 -1.92472,-0.11679 -2.75335,0.92755 -0.5758,-0.7167 -1.94515,-2.00336 -3.00917,-0.80922 0,0 -1.16204,1.61093 0.17598,2.15562 -1.63251,0.57567 -2.00785,2.39442 -0.18913,2.18139 -1.50226,1.77247 0.26284,2.98698 2.61712,1.50484 -0.65988,1.42876 2.73397,2.79015 3.98841,1.25496 -0.0223,1.01427 2.90347,3.03935 3.98454,0.69275 0.14919,1.16731 1.94762,0.77449 3.02681,-0.27225 -0.0182,1.86254 1.35283,1.37142 1.35283,1.37142 z"
         style="fill:#d9f0ff;fill-opacity:1;stroke:#000000;stroke-width:0.62445068px;stroke-linecap:butt;stroke-linejoin:miter;stroke-opacity:1" />
    </g>
  </g>
</svg>
